<?xml version="1.0" encoding="UTF-8" standalone="no"?>
<!-- Created with Inkscape (http://www.inkscape.org/) -->

<svg
   width="300"
   height="300"
   viewBox="0 0 79.374998 79.375"
   version="1.1"
   id="svg1"
   inkscape:version="1.3 (0e150ed6c4, 2023-07-21)"
   sodipodi:docname="lumberjack.svg"
   xmlns:inkscape="http://www.inkscape.org/namespaces/inkscape"
   xmlns:sodipodi="http://sodipodi.sourceforge.net/DTD/sodipodi-0.dtd"
   xmlns="http://www.w3.org/2000/svg"
   xmlns:svg="http://www.w3.org/2000/svg">
  <sodipodi:namedview
     id="namedview1"
     pagecolor="#ffffff"
     bordercolor="#666666"
     borderopacity="1.0"
     inkscape:showpageshadow="2"
     inkscape:pageopacity="0.0"
     inkscape:pagecheckerboard="0"
     inkscape:deskcolor="#d1d1d1"
     inkscape:document-units="px"
     inkscape:zoom="0.74029882"
     inkscape:cx="27.016118"
     inkscape:cy="291.09867"
     inkscape:window-width="1920"
     inkscape:window-height="1009"
     inkscape:window-x="1272"
     inkscape:window-y="-8"
     inkscape:window-maximized="1"
     inkscape:current-layer="layer1" />
  <defs
     id="defs1" />
  <g
     inkscape:label="Calque 1"
     inkscape:groupmode="layer"
     id="layer1">
    <g
       id="g1"
       transform="translate(-1.0712379,0.77308644)">
      <path
         style="fill:#67d058;fill-opacity:1;stroke:#000000;stroke-width:0.396875;stroke-linecap:butt;stroke-linejoin:miter;stroke-dasharray:none;stroke-opacity:1;paint-order:fill markers stroke"
         d="m 20.711174,25.190568 c -3.007925,2.33354 -4.721589,-1.46142 -7.981869,-3.32724 -2.162846,-1.22585 -0.587653,-3.99035 1.241707,-3.52036 2.249327,0.57789 10.161562,3.84507 6.740162,6.8476 z"
         id="path15-1-3-5-1-7-1"
         sodipodi:nodetypes="ccsc"
         inkscape:transform-center-x="3.1631067"
         inkscape:transform-center-y="-2.8502463" />
      <path
         style="fill:#67d058;fill-opacity:1;stroke:#000000;stroke-width:0.396875;stroke-linecap:round;stroke-linejoin:miter;stroke-dasharray:none;stroke-opacity:1"
         d="m 15.132452,20.590848 c -0.04301,-3.32492 -0.532068,-6.63942 -0.2993,-9.94442 -0.03061,-0.6646599 -1.908777,-1.4642999 -2.307438,-0.38836 -2.184112,5.15782 -1.434105,8.85101 -0.877146,9.85399"
         id="path44-9-7-5-0-3"
         sodipodi:nodetypes="cccc"
         inkscape:transform-center-x="0.61698784"
         inkscape:transform-center-y="-4.4373603" />
      <g
         id="g25-4-9-4-7-3"
         transform="rotate(178.2571,99.913294,49.643349)"
         inkscape:transform-center-x="-1.2980218"
         inkscape:transform-center-y="-1.9703177">
        <g
           id="g45-0-5-29-2"
           transform="translate(-0.9398342,-0.05413033)"
           inkscape:transform-center-x="1.5447553"
           inkscape:transform-center-y="1.5446758">
          <path
             style="fill:#67d058;fill-opacity:1;stroke:#000000;stroke-width:0.396875;stroke-linecap:butt;stroke-linejoin:miter;stroke-dasharray:none;stroke-opacity:1"
             d="m 184.38476,91.63361 c -0.06,0 -0.31182,-0.352385 -0.86352,0.100681 -0.55169,0.453066 -0.76757,1.375978 -1.11538,1.678022 -0.34781,0.302045 -1.03143,1.174615 -0.57568,1.292078 0.45575,0.117461 0.95947,-0.67121 1.15136,-0.939693 0.1919,-0.268483 0.036,-0.201362 0.8995,-0.134243 0.86352,0.06712 1.13937,0 1.19934,-0.1678 0.06,-0.167803 -0.69562,-1.829045 -0.69562,-1.829045 z"
             id="path22-7-8-3-9-1" />
          <path
             style="fill:#000000;fill-opacity:1;stroke:none;stroke-width:0.264583px;stroke-linecap:butt;stroke-linejoin:miter;stroke-opacity:1"
             d="m 182.66824,92.732586 c 0,0 0.7078,0 0.7078,0.296818 0,0.296817 -0.49089,0.913283 -0.49089,0.913283 l -0.0114,0.41098 2.86543,1.41559 c 0.37471,-0.505432 1.53474,-2.688766 0.94248,-3.601238 -0.36996,-0.569982 -1.42759,-1.23396 -1.99381,-1.159875 -1.10475,0.144547 -1.5,0.652886 -2.01959,1.724442 z"
             id="path25-9-5-5-3-6"
             sodipodi:nodetypes="cscccsscc" />
          <path
             style="fill:#67d058;fill-opacity:1;stroke:#000000;stroke-width:0.396875;stroke-linecap:butt;stroke-linejoin:miter;stroke-dasharray:none;stroke-opacity:1"
             d="m 182.92812,94.448617 c -0.78412,0.735098 -0.78548,1.593377 -0.048,1.443098 1.437,-0.354831 1.98251,-3.256683 0.048,-1.443098 z"
             id="path23-0-2-2-2-8"
             sodipodi:nodetypes="sss" />
          <path
             style="fill:#67d058;fill-opacity:1;stroke:#000000;stroke-width:0.396875;stroke-linecap:butt;stroke-linejoin:miter;stroke-dasharray:none;stroke-opacity:1"
             d="m 183.79941,95.158159 c -0.51683,0.920718 -0.35916,1.655501 0.22707,1.252453 1.13076,-0.838368 1.04805,-3.523992 -0.22707,-1.252453 z"
             id="path23-4-4-0-7-4-3"
             sodipodi:nodetypes="sss" />
          <path
             style="fill:#67d058;fill-opacity:1;stroke:#000000;stroke-width:0.396875;stroke-linecap:butt;stroke-linejoin:miter;stroke-dasharray:none;stroke-opacity:1"
             d="m 184.95117,95.063101 c -0.62306,0.781453 -0.6059,1.508165 0.0287,1.291499 1.23338,-0.477438 1.12559,-2.739192 -0.0287,-1.291499 z"
             id="path23-4-1-8-7-6-3-0"
             sodipodi:nodetypes="sss" />
        </g>
      </g>
      <path
         style="fill:#103939;fill-opacity:1;stroke:#000000;stroke-width:0.396875;stroke-linecap:round;stroke-linejoin:round;stroke-dasharray:none;stroke-opacity:1"
         d="m 10.51431,69.577728 2.549985,0.82533 c 0,0 2.028235,-2.26449 3.7452,-6.33635 1.716987,-4.07187 1.367034,-6.15076 1.219361,-7.61937 -0.16671,-2.3686 -5.043576,-3.56662 -5.879666,-0.4636 -0.945522,3.50925 -0.338506,9.62294 -1.634638,13.59403 z"
         id="path35-1-7-9-2-8-9"
         sodipodi:nodetypes="ccscsc"
         inkscape:transform-center-x="1.3938888"
         inkscape:transform-center-y="6.1980613" />
      <path
         style="fill:#103939;fill-opacity:1;stroke:#000000;stroke-width:0.396875;stroke-linecap:round;stroke-linejoin:miter;stroke-dasharray:none;stroke-opacity:1"
         d="m 16.071239,57.369048 c 0,0 7.037168,-7.92983 6.210382,-13.41603 -0.826818,-5.4862 -5.560803,-4.46755 -7.537455,-1.02144 -1.97667,3.44614 -2.322668,13.35691 -2.322668,13.35691"
         id="path26-5-5-9-4-8-46-2"
         inkscape:transform-center-x="1.1877469"
         inkscape:transform-center-y="5.1968775" />
      <g
         id="g46-0-3-1-8-9"
         inkscape:transform-center-x="2.5998848"
         inkscape:transform-center-y="1.7117788"
         transform="translate(-292.12958,-45.146942)">
        <path
           style="fill:#1a1a1a;stroke:#000000;stroke-width:0.264583px;stroke-linecap:butt;stroke-linejoin:miter;stroke-opacity:1"
           d="m 302.5122,113.34753 c 0,0 -3.60747,0.6393 -4.47509,1.68957 -0.86762,1.05028 -0.18265,2.05489 -0.18265,2.05489 0,0 7.62592,0.137 7.85424,0 1.71301,-0.54029 0.53763,-3.71108 -0.50231,-3.83579 0,0 -1.73524,-0.54797 -2.69419,0.0913 z"
           id="path36-75-2-9-0-7-1"
           sodipodi:nodetypes="cscscsc" />
        <path
           style="fill:none;stroke:#000000;stroke-width:0.264583px;stroke-linecap:round;stroke-linejoin:round;stroke-opacity:1"
           d="m 301.44643,113.64279 c 1.08725,0.0947 1.87754,1.15853 1.99387,1.77592"
           id="path45-9-7-4-4-5"
           sodipodi:nodetypes="cc" />
        <path
           style="fill:none;stroke:#000000;stroke-width:0.264583px;stroke-linecap:round;stroke-linejoin:round;stroke-opacity:1"
           d="m 300.33029,113.89239 c 1.08725,0.0947 1.69995,0.97287 1.81628,1.59026"
           id="path45-8-5-8-9-92-1"
           sodipodi:nodetypes="cc" />
        <path
           style="fill:none;stroke:#000000;stroke-width:0.264583px;stroke-linecap:round;stroke-linejoin:round;stroke-opacity:1"
           d="m 299.3428,114.25204 c 0.69171,0.0382 1.63537,0.62576 1.5176,1.36423"
           id="path45-8-0-5-2-0-83-3"
           sodipodi:nodetypes="cc" />
      </g>
      <path
         style="fill:#103939;fill-opacity:1;stroke:#000000;stroke-width:0.396875;stroke-linecap:round;stroke-linejoin:round;stroke-dasharray:none;stroke-opacity:1"
         d="m 28.246584,69.763788 2.381469,-1.2297 c 0,0 -0.180027,-3.03468 -1.862677,-7.12084 -1.682673,-4.08617 -3.405289,-5.30138 -4.55216,-6.23053 -1.799376,-1.54929 -6.083821,1.07039 -4.468962,3.84887 1.826275,3.14223 6.595141,7.01569 8.502521,10.73205 z"
         id="path35-1-7-9-0-5"
         sodipodi:nodetypes="ccscsc"
         inkscape:transform-center-x="-3.6752078"
         inkscape:transform-center-y="5.3205048" />
      <path
         style="fill:#103939;fill-opacity:1;stroke:#000000;stroke-width:0.396875;stroke-linecap:round;stroke-linejoin:miter;stroke-dasharray:none;stroke-opacity:1"
         d="m 23.236194,58.299318 c 0,0 6.47948,-8.39168 5.280141,-13.80866 -1.19936,-5.41696 -5.85277,-4.07756 -7.589595,-0.50457 -1.736836,3.57303 -1.405537,13.48431 -1.405537,13.48431"
         id="path26-5-5-9-4-1-2"
         inkscape:transform-center-x="0.48122865"
         inkscape:transform-center-y="6.0901821" />
      <g
         id="g33-5-1-6-7-9"
         transform="translate(-147.92329,-43.033972)">
        <path
           style="fill:#008080;fill-opacity:1;stroke:#000000;stroke-width:0.396875;stroke-linecap:butt;stroke-linejoin:miter;stroke-dasharray:none;stroke-opacity:1"
           d="m 165.22101,69.261404 c 1.69044,-3.020669 7.79885,-3.787185 10.5256,-0.410975 2.15337,2.666264 -4.59124,8.813676 1.39276,15.023524 -7.64026,7.858037 -14.21821,2.626231 -14.97786,1.369925 2.27521,-3.469157 1.9793,-5.963722 1.77811,-8.56185 -0.10121,-1.306958 0.14445,-2.478675 0.43051,-3.975287 0.19243,-1.006745 0.22637,-2.248897 0.85088,-3.445337 z"
           id="path28-5-5-4-6-2"
           sodipodi:nodetypes="csccssc" />
        <path
           style="fill:#008080;fill-opacity:1;stroke:#000000;stroke-width:0.396875;stroke-linecap:round;stroke-linejoin:round;stroke-dasharray:none;stroke-opacity:1"
           d="m 164.89311,69.894771 c 0.004,2.727908 -3.97023,4.697026 -0.0662,6.842471"
           id="path29-1-9-7-42-1"
           sodipodi:nodetypes="cc" />
        <path
           style="fill:none;stroke:#000000;stroke-width:0.396875;stroke-linecap:round;stroke-linejoin:round;stroke-dasharray:none;stroke-opacity:1"
           d="m 167.39548,75.434859 c 1.41416,2.799279 4.06622,0.527541 4.20339,0.36302"
           id="path30-7-2-0-4-9"
           sodipodi:nodetypes="cc" />
        <path
           style="fill:#000000;fill-opacity:0.154167;stroke:none;stroke-width:0.264583px;stroke-linecap:butt;stroke-linejoin:miter;stroke-opacity:1"
           d="m 167.55006,67.194387 c 0,0 3.3581,-0.193736 4.35908,0.322895 1.00097,0.51663 1.67905,1.097841 1.67905,1.097841 0,0 -1.48532,1.517605 -1.48532,2.906053 0,1.388446 0.38748,4.213776 -3.00292,4.278353 -3.39039,0.06458 -1.38844,-2.502432 -1.38844,-2.502432 0,0 -1.67906,-0.807236 -2.48629,0.419764 -0.80724,1.227 -1.90508,1.646761 -1.90508,1.646761 0,0 0.91079,1.679629 1.41266,1.364229 1.75978,-1.105913 3.26931,-0.460124 3.43076,-0.330965 0.16145,0.129156 0.41299,0.675717 1.51761,0.387473 3.09455,-0.807512 3.90695,10.057317 3.61642,10.042026 l 3.77786,-2.841474 c 0,0 -1.80821,-2.260264 -2.19568,-4.2945 -0.38747,-2.034235 -0.16145,-3.196656 0.64579,-6.296445 0.80724,-3.09979 1.06555,-4.197633 -0.29061,-5.230895 -1.35615,-1.033264 -3.84244,-2.292553 -7.68489,-0.968684 z"
           id="path33-5-2-9-9-1"
           sodipodi:nodetypes="cscsscscsssccsssc" />
      </g>
      <path
         style="fill:#67d058;fill-opacity:1;stroke:#000000;stroke-width:0.396875;stroke-linecap:butt;stroke-linejoin:miter;stroke-dasharray:none;stroke-opacity:1"
         d="m 25.972786,18.751708 c 0,0 -0.68429,3.59572 -0.72995,5.37663 -0.15523,1.62374 -2.55168,1.95094 -4.16779,1.8275 -2.94142,-0.3301 0.47865,-4.12303 -0.0568,-6.17668 -0.21588,-2.36647 4.88607,-5.22855 4.95457,-1.02745 z"
         id="path13-0-60-3-7-3"
         sodipodi:nodetypes="ccccc" />
      <path
         style="fill:#67d058;fill-opacity:1;stroke:#000000;stroke-width:0.396875;stroke-linecap:butt;stroke-linejoin:miter;stroke-dasharray:none;stroke-opacity:1;paint-order:fill markers stroke"
         d="m 28.246943,27.374918 c -0.145149,-3.80421 -4.15398,-2.67835 -7.678714,-3.97719 -2.329143,-0.8693 -3.434915,2.11414 -1.8992,3.21369 1.888276,1.35198 9.476241,5.31442 9.577914,0.7635 z"
         id="path15-1-2-1-8-2"
         sodipodi:nodetypes="ccsc"
         inkscape:transform-center-x="3.4392892"
         inkscape:transform-center-y="-0.8491357" />
      <g
         id="g30-5-1"
         transform="translate(-327.75284,-240.11834)">
        <path
           id="path2-9-2-7-2-8"
           style="opacity:0.999;fill:#67d058;fill-opacity:1;stroke:#000000;stroke-width:0.410104;stroke-linecap:round;stroke-linejoin:round;stroke-dasharray:none;paint-order:fill markers stroke"
           d="m 346.30337,257.82491 c 1.22669,4.80601 6.5051,8.28939 9.27187,7.48873 2.97676,-0.86144 5.58912,-5.94056 4.36243,-10.74658 -1.22669,-4.80602 -5.31609,-6.87752 -9.13394,-5.94126 -3.81784,0.93627 -5.72705,4.39309 -4.50036,9.19911 z"
           sodipodi:nodetypes="sssss" />
        <rect
           style="opacity:0.999;fill:#000000;fill-opacity:1;stroke:none;stroke-width:0.105557;stroke-linecap:round;stroke-linejoin:bevel;stroke-dasharray:none;stroke-opacity:1;paint-order:markers stroke fill"
           id="rect8-0-1-5-75-1"
           width="1.1129664"
           height="2.4691243"
           x="-358.36096"
           y="254.41295"
           ry="0.68564111"
           transform="scale(-1,1)" />
        <rect
           style="opacity:0.999;fill:#000000;fill-opacity:1;stroke:none;stroke-width:0.105557;stroke-linecap:round;stroke-linejoin:bevel;stroke-dasharray:none;stroke-opacity:1;paint-order:markers stroke fill"
           id="rect8-4-6-3-1-1-7"
           width="1.1129664"
           height="2.4691243"
           x="-353.8819"
           y="254.4818"
           ry="0.68564111"
           transform="scale(-1,1)" />
        <path
           style="fill:#000000;fill-opacity:1;stroke:none;stroke-width:0.265;stroke-linecap:butt;stroke-linejoin:miter;stroke-dasharray:none;stroke-opacity:1"
           d="m 353.59559,253.02708 c 0.47806,0.56103 -1.10522,0.2641 -1.87314,1.92 -0.24909,-0.66224 1.18739,-2.59347 1.87314,-1.92 z"
           id="path8-2-8-3-7-8-8"
           sodipodi:nodetypes="ccc" />
        <path
           style="fill:#000000;fill-opacity:1;stroke:none;stroke-width:0.265;stroke-linecap:butt;stroke-linejoin:miter;stroke-dasharray:none;stroke-opacity:1"
           d="m 357.15166,252.75578 c -0.47806,0.56103 1.10522,0.2641 1.87314,1.92 0.24909,-0.66224 -1.18739,-2.59347 -1.87314,-1.92 z"
           id="path8-2-6-4-0-5-13-5"
           sodipodi:nodetypes="ccc" />
        <path
           style="fill:#67d058;fill-opacity:1;stroke:#000000;stroke-width:0.396875;stroke-linecap:round;stroke-linejoin:miter;stroke-dasharray:none;stroke-opacity:1"
           d="m 356.93735,257.15576 c 0,0 0.12294,0.92971 0.871,1.36481 0.44418,0.25835 -1.03245,1.10534 -1.03245,1.10534"
           id="path26-54-7-2-27-0"
           sodipodi:nodetypes="csc" />
        <path
           style="fill:#ffffff;stroke:#000000;stroke-width:0.264583;stroke-linecap:round;stroke-linejoin:round;stroke-dasharray:none;stroke-opacity:1"
           d="m 358.20471,260.29592 c -2.07929,0.94261 -4.15258,-0.19099 -4.03618,0.0242 1.83202,3.38733 3.77016,1.43757 4.03618,-0.0242 z"
           id="path27-1-7-3-0-2"
           sodipodi:nodetypes="csc" />
        <path
           style="fill:#d45500;fill-opacity:1;stroke:#000000;stroke-width:0.396875;stroke-linecap:butt;stroke-linejoin:miter;stroke-dasharray:none;stroke-opacity:1"
           d="m 349.67051,252.87718 -3.01383,-1.2786 c -3.32799,-5.29919 15.60819,-12.87131 14.93218,7.35194 -2.20759,-3.92726 -3.21809,-11.22686 -11.91835,-6.07334 z"
           id="path41-9-8-59-9"
           sodipodi:nodetypes="cccc" />
        <path
           style="fill:#000000;fill-opacity:0.133333;stroke:none;stroke-width:0.264583px;stroke-linecap:butt;stroke-linejoin:miter;stroke-opacity:1"
           d="m 360.07848,258.38341 c 0,0 -1.69518,-3.92317 -3.13205,-4.97258 -1.4369,-1.04941 -4.52054,-0.9364 -5.39235,-0.74266 -0.87182,0.19374 -1.06555,0.1453 -1.35617,0.38747 -0.29059,0.24217 -1.43687,3.81016 0.54893,7.362 1.9858,3.55184 4.34292,4.97258 4.34292,4.97258 0,0 -2.90605,0.1453 -5.74751,-2.55087 -2.84148,-2.69617 -1.71135,-2.22797 -1.71135,-2.22797 0,0 -1.84051,-4.1492 -1.74364,-5.3762 0.0969,-1.227 0.75879,-3.63256 0.75879,-3.63256 0,0 -0.45204,-0.64579 -0.35517,-1.29158 0.0969,-0.64579 0.41976,-1.87279 0.93639,-2.27641 0.51666,-0.40362 2.03425,-1.38845 2.03425,-1.38845 0,0 -0.74266,1.00098 -1.17856,1.42074 -0.43592,0.41976 1.45302,-0.35518 1.9535,-0.54892 0.50049,-0.19374 0.53279,0.12916 0.0646,0.69422 -0.46821,0.56507 -0.27446,0.7911 0.33903,0.83953 0.61352,0.0484 1.32387,-0.0161 0.67808,0.53278 -0.64577,0.54892 -1.53374,0.95253 -0.33904,0.74265 1.19473,-0.20988 1.45304,-0.17759 0.83952,0.33904 -0.61349,0.51663 -0.56504,0.6135 -0.56504,0.6135 5.07036,-2.11207 8.01587,-1.63255 10.46178,7.11983 l -1.14628,-1.82435 z"
           id="path42-1-3-0-2"
           sodipodi:nodetypes="csssscscscsscssssssscccc" />
        <path
           style="fill:#67d058;fill-opacity:1;stroke:#000000;stroke-width:0.397404;stroke-linecap:round;stroke-linejoin:miter;stroke-dasharray:none;stroke-opacity:1;paint-order:markers fill stroke"
           d="m 348.36238,260.57844 c -3.60365,0.18596 -1.68773,-2.10991 -3.9043,-4.81758 1.97723,-0.53429 3.82611,1.98318 3.87005,3.18508"
           id="path9-1-1-1-7-7"
           sodipodi:nodetypes="ccc" />
        <path
           style="fill:#000000;fill-opacity:0.1875;stroke:none;stroke-width:0.264583px;stroke-linecap:butt;stroke-linejoin:miter;stroke-opacity:1"
           d="m 344.53918,255.75989 c 0,0 0.19372,-0.12109 1.1947,0.12108 1.00097,0.24217 1.81629,1.25122 2.03426,1.52568 0.21796,0.27446 0.53276,1.52568 0.53276,1.52568 l -0.0565,0.0726 c 0,0 -0.9929,-1.41267 -1.86474,-2.04231 -0.8718,-0.62965 -1.48532,-0.50049 -1.48532,-0.50049 z"
           id="path43-00-0-3-4" />
      </g>
      <path
         style="fill:#67d058;fill-opacity:1;stroke:#000000;stroke-width:0.396875;stroke-linecap:round;stroke-linejoin:miter;stroke-dasharray:none;stroke-opacity:1"
         d="m 21.570168,24.112908 c -1.642509,-2.8912 -3.670631,-5.55798 -5.062013,-8.56488 -0.347578,-0.56735 -2.378487,-0.36111 -2.208303,0.77361 0.576678,5.57144 3.016106,8.44393 3.988014,9.05351"
         id="path44-00-6-26-6"
         sodipodi:nodetypes="cccc"
         inkscape:transform-center-x="1.5803667"
         inkscape:transform-center-y="-4.0346779" />
      <g
         id="g21-1-0-4-90-3"
         transform="rotate(163.4533,92.843508,41.822189)"
         inkscape:transform-center-x="4.3714141"
         inkscape:transform-center-y="-11.031327">
        <g
           id="g44-3-2-20-4"
           transform="translate(-6.4738393,-1.8655071)">
          <path
             style="fill:#67d058;fill-opacity:1;stroke:#000000;stroke-width:0.396875;stroke-linecap:butt;stroke-linejoin:miter;stroke-dasharray:none;stroke-opacity:1"
             d="m 164.97264,90.099494 c 0,0 -0.24991,0.642304 -0.90106,1.757576 -0.6512,1.115272 -1.12876,1.164839 -0.84657,2.180977 0.2822,1.016137 0.62951,1.462247 0.62951,1.462247 0,0 1.80168,-0.594814 2.40947,-0.693947 0.6078,-0.09914 0.87672,0.53506 1.0938,-0.728914 0.21706,-1.263976 -0.32561,-3.568871 -0.41244,-3.717575 -0.0869,-0.148703 -1.97271,-0.260362 -1.97271,-0.260362 z"
             id="path18-3-0-6-53-5"
             sodipodi:nodetypes="csscssscc" />
          <path
             style="fill:#67d058;fill-opacity:1;stroke:#000000;stroke-width:0.397;stroke-linecap:round;stroke-linejoin:miter;stroke-dasharray:none;stroke-opacity:1"
             d="m 163.89793,93.14583 c 0,0 -0.47755,3.197112 0.3039,3.296249 0.78145,0.09913 1.19388,-2.106625 1.19388,-2.106625"
             id="path19-0-3-2-67-4" />
          <path
             style="fill:#67d058;fill-opacity:1;stroke:#000000;stroke-width:0.397;stroke-linecap:round;stroke-linejoin:miter;stroke-dasharray:none;stroke-opacity:1"
             d="m 165.41015,94.332107 c 0,0 -0.34004,1.614295 0.39799,1.63908 0.73804,0.02478 0.93341,-1.660517 0.93341,-1.660517"
             id="path20-6-6-4-3-3"
             sodipodi:nodetypes="csc" />
          <path
             style="fill:#000000;fill-opacity:1;stroke:none;stroke-width:0.264583px;stroke-linecap:butt;stroke-linejoin:miter;stroke-opacity:1"
             d="m 163.56157,92.860973 c 0.10924,0.557486 1.0421,2.25399 1.93325,1.681231 0.36305,-0.233336 1.82256,0.79731 2.18685,0.04391 0.95276,-2.343882 0.17404,-2.326371 -0.17523,-4.430051 -0.0931,-0.349363 -2.51691,-1.087812 -2.83234,-0.38686 z"
             id="path21-2-1-6-3-0"
             sodipodi:nodetypes="cscccc" />
        </g>
      </g>
      <g
         id="g46-0-3-75-0"
         inkscape:transform-center-x="2.5998848"
         inkscape:transform-center-y="1.7117788"
         transform="translate(-274.8105,-44.616772)">
        <path
           style="fill:#1a1a1a;stroke:#000000;stroke-width:0.264583px;stroke-linecap:butt;stroke-linejoin:miter;stroke-opacity:1"
           d="m 302.5122,113.34753 c 0,0 -3.60747,0.6393 -4.47509,1.68957 -0.86762,1.05028 -0.18265,2.05489 -0.18265,2.05489 0,0 7.62592,0.137 7.85424,0 1.71301,-0.54029 0.53763,-3.71108 -0.50231,-3.83579 0,0 -1.73524,-0.54797 -2.69419,0.0913 z"
           id="path36-75-2-9-9-9"
           sodipodi:nodetypes="cscscsc" />
        <path
           style="fill:none;stroke:#000000;stroke-width:0.264583px;stroke-linecap:round;stroke-linejoin:round;stroke-opacity:1"
           d="m 301.44643,113.64279 c 1.08725,0.0947 1.87754,1.15853 1.99387,1.77592"
           id="path45-9-7-6-3"
           sodipodi:nodetypes="cc" />
        <path
           style="fill:none;stroke:#000000;stroke-width:0.264583px;stroke-linecap:round;stroke-linejoin:round;stroke-opacity:1"
           d="m 300.33029,113.89239 c 1.08725,0.0947 1.69995,0.97287 1.81628,1.59026"
           id="path45-8-5-8-5-6"
           sodipodi:nodetypes="cc" />
        <path
           style="fill:none;stroke:#000000;stroke-width:0.264583px;stroke-linecap:round;stroke-linejoin:round;stroke-opacity:1"
           d="m 299.3428,114.25204 c 0.69171,0.0382 1.63537,0.62576 1.5176,1.36423"
           id="path45-8-0-5-2-2-5"
           sodipodi:nodetypes="cc" />
      </g>
      <path
         style="fill:#67d058;fill-opacity:1;stroke:#000000;stroke-width:0.396875;stroke-linecap:butt;stroke-linejoin:miter;stroke-dasharray:none;stroke-opacity:1;paint-order:fill markers stroke"
         d="m 61.769504,37.263688 c -3.78599,0.39925 -2.39454,4.32382 -3.45474,7.92752 -0.71159,2.38206 2.33913,3.28583 3.33351,1.68002 1.22267,-1.97448 4.66875,-9.81044 0.12123,-9.60754 z"
         id="path15-1-3-5-1-7-1-5"
         sodipodi:nodetypes="ccsc"
         inkscape:transform-center-x="1.2985964"
         inkscape:transform-center-y="4.4527768" />
      <path
         style="fill:#67d058;fill-opacity:1;stroke:#000000;stroke-width:0.396875;stroke-linecap:round;stroke-linejoin:miter;stroke-dasharray:none;stroke-opacity:1"
         d="m 61.541124,44.942678 c 1.53036,2.9521 2.6625,6.1054 4.42665,8.90986 0.28653,0.60051 -0.99241,2.19151 -1.85144,1.43082 -4.35872,-3.51781 -5.43938,-7.12812 -5.42137,-8.27522"
         id="path44-9-7-5-0-3-4"
         sodipodi:nodetypes="cccc"
         inkscape:transform-center-x="0.076955064"
         inkscape:transform-center-y="12.197091" />
      <g
         id="g25-4-9-4-7-3-4"
         transform="matrix(-0.64995006,0.75997692,0.75997692,0.64995006,115.217,-145.50364)"
         inkscape:transform-center-x="-4.7942387"
         inkscape:transform-center-y="16.879364">
        <g
           id="g45-0-5-29-2-5"
           transform="translate(-0.9398342,-0.05413033)"
           inkscape:transform-center-x="1.5447553"
           inkscape:transform-center-y="1.5446758">
          <path
             style="fill:#67d058;fill-opacity:1;stroke:#000000;stroke-width:0.396875;stroke-linecap:butt;stroke-linejoin:miter;stroke-dasharray:none;stroke-opacity:1"
             d="m 184.38476,91.63361 c -0.06,0 -0.31182,-0.352385 -0.86352,0.100681 -0.55169,0.453066 -0.76757,1.375978 -1.11538,1.678022 -0.34781,0.302045 -1.03143,1.174615 -0.57568,1.292078 0.45575,0.117461 0.95947,-0.67121 1.15136,-0.939693 0.1919,-0.268483 0.036,-0.201362 0.8995,-0.134243 0.86352,0.06712 1.13937,0 1.19934,-0.1678 0.06,-0.167803 -0.69562,-1.829045 -0.69562,-1.829045 z"
             id="path22-7-8-3-9-1-0" />
          <path
             style="fill:#000000;fill-opacity:1;stroke:none;stroke-width:0.264583px;stroke-linecap:butt;stroke-linejoin:miter;stroke-opacity:1"
             d="m 182.66824,92.732586 c 0,0 0.7078,0 0.7078,0.296818 0,0.296817 -0.49089,0.913283 -0.49089,0.913283 l -0.0114,0.41098 2.86543,1.41559 c 0.37471,-0.505432 1.53474,-2.688766 0.94248,-3.601238 -0.36996,-0.569982 -1.42759,-1.23396 -1.99381,-1.159875 -1.10475,0.144547 -1.5,0.652886 -2.01959,1.724442 z"
             id="path25-9-5-5-3-6-2"
             sodipodi:nodetypes="cscccsscc" />
          <path
             style="fill:#67d058;fill-opacity:1;stroke:#000000;stroke-width:0.396875;stroke-linecap:butt;stroke-linejoin:miter;stroke-dasharray:none;stroke-opacity:1"
             d="m 182.92812,94.448617 c -0.78412,0.735098 -0.78548,1.593377 -0.048,1.443098 1.437,-0.354831 1.98251,-3.256683 0.048,-1.443098 z"
             id="path23-0-2-2-2-8-1"
             sodipodi:nodetypes="sss" />
          <path
             style="fill:#67d058;fill-opacity:1;stroke:#000000;stroke-width:0.396875;stroke-linecap:butt;stroke-linejoin:miter;stroke-dasharray:none;stroke-opacity:1"
             d="m 183.79941,95.158159 c -0.51683,0.920718 -0.35916,1.655501 0.22707,1.252453 1.13076,-0.838368 1.04805,-3.523992 -0.22707,-1.252453 z"
             id="path23-4-4-0-7-4-3-6"
             sodipodi:nodetypes="sss" />
          <path
             style="fill:#67d058;fill-opacity:1;stroke:#000000;stroke-width:0.396875;stroke-linecap:butt;stroke-linejoin:miter;stroke-dasharray:none;stroke-opacity:1"
             d="m 184.95117,95.063101 c -0.62306,0.781453 -0.6059,1.508165 0.0287,1.291499 1.23338,-0.477438 1.12559,-2.739192 -0.0287,-1.291499 z"
             id="path23-4-1-8-7-6-3-0-0"
             sodipodi:nodetypes="sss" />
        </g>
      </g>
      <path
         style="fill:#103939;fill-opacity:1;stroke:#000000;stroke-width:0.396875;stroke-linecap:round;stroke-linejoin:round;stroke-dasharray:none;stroke-opacity:1"
         d="m 60.937094,70.523818 -2.14666,-1.60482 c 0,0 0.67694,-2.96368 3.00904,-6.71726 2.33209,-3.7536 4.23123,-4.66875 5.51536,-5.39652 2.02979,-1.23208 5.82475,2.0569 3.7747,4.53179 -2.31845,2.79887 -7.65969,5.83479 -10.15262,9.18663 z"
         id="path35-1-7-9-2-8-9-3"
         sodipodi:nodetypes="ccscsc"
         inkscape:transform-center-x="4.7971578"
         inkscape:transform-center-y="5.5177964" />
      <path
         style="fill:#103939;fill-opacity:1;stroke:#000000;stroke-width:0.396875;stroke-linecap:round;stroke-linejoin:miter;stroke-dasharray:none;stroke-opacity:1"
         d="m 68.616924,60.634108 c 0,0 -10.55173,1.03192 -14.50411,-2.86176 -3.95235,-3.89369 -0.34561,-7.12474 3.60419,-6.69823 3.94984,0.42651 12.17107,5.97217 12.17107,5.97217"
         id="path26-5-5-9-4-8-46-2-0"
         inkscape:transform-center-x="-5.1909256"
         inkscape:transform-center-y="1.3712577" />
      <g
         id="g46-0-3-1-8-9-3"
         inkscape:transform-center-x="-2.5998833"
         inkscape:transform-center-y="1.7117788"
         transform="matrix(-1,0,0,1,364.39611,-44.681482)">
        <path
           style="fill:#1a1a1a;stroke:#000000;stroke-width:0.264583px;stroke-linecap:butt;stroke-linejoin:miter;stroke-opacity:1"
           d="m 302.5122,113.34753 c 0,0 -3.60747,0.6393 -4.47509,1.68957 -0.86762,1.05028 -0.18265,2.05489 -0.18265,2.05489 0,0 7.62592,0.137 7.85424,0 1.71301,-0.54029 0.53763,-3.71108 -0.50231,-3.83579 0,0 -1.73524,-0.54797 -2.69419,0.0913 z"
           id="path36-75-2-9-0-7-1-7"
           sodipodi:nodetypes="cscscsc" />
        <path
           style="fill:none;stroke:#000000;stroke-width:0.264583px;stroke-linecap:round;stroke-linejoin:round;stroke-opacity:1"
           d="m 301.44643,113.64279 c 1.08725,0.0947 1.87754,1.15853 1.99387,1.77592"
           id="path45-9-7-4-4-5-5"
           sodipodi:nodetypes="cc" />
        <path
           style="fill:none;stroke:#000000;stroke-width:0.264583px;stroke-linecap:round;stroke-linejoin:round;stroke-opacity:1"
           d="m 300.33029,113.89239 c 1.08725,0.0947 1.69995,0.97287 1.81628,1.59026"
           id="path45-8-5-8-9-92-1-4"
           sodipodi:nodetypes="cc" />
        <path
           style="fill:none;stroke:#000000;stroke-width:0.264583px;stroke-linecap:round;stroke-linejoin:round;stroke-opacity:1"
           d="m 299.3428,114.25204 c 0.69171,0.0382 1.63537,0.62576 1.5176,1.36423"
           id="path45-8-0-5-2-0-83-3-3"
           sodipodi:nodetypes="cc" />
      </g>
      <path
         style="fill:#103939;fill-opacity:1;stroke:#000000;stroke-width:0.396875;stroke-linecap:round;stroke-linejoin:round;stroke-dasharray:none;stroke-opacity:1"
         d="m 46.818564,70.707748 -1.45037,-2.25389 c 0,0 1.67009,-2.54017 5.16704,-5.24191 3.49696,-2.70174 5.59616,-2.89544 7.05366,-3.12849 2.3324,-0.44493 4.73848,3.96301 1.95272,5.56528 -3.15047,1.81203 -9.21594,2.78965 -12.72315,5.05879 z"
         id="path35-1-7-9-0-5-4"
         sodipodi:nodetypes="ccscsc"
         inkscape:transform-center-x="6.6359291"
         inkscape:transform-center-y="1.9221723" />
      <path
         style="fill:#103939;fill-opacity:1;stroke:#000000;stroke-width:0.396875;stroke-linecap:round;stroke-linejoin:miter;stroke-dasharray:none;stroke-opacity:1"
         d="m 57.815284,64.919788 c 0,0 -9.91407,-3.75702 -11.72846,-9.00011 -1.81437,-5.2431 2.85152,-6.53837 6.20199,-4.40362 3.3505,2.13478 8.25756,10.75243 8.25756,10.75243"
         id="path26-5-5-9-4-1-2-7"
         inkscape:transform-center-x="-4.1816515"
         inkscape:transform-center-y="4.731282" />
      <g
         id="g33-5-1-6-7-9-7"
         transform="matrix(-0.93312281,-0.35955783,-0.35955783,0.93312281,242.59298,34.172968)"
         inkscape:transform-center-x="-0.89503367"
         inkscape:transform-center-y="-9.8063904">
        <path
           style="fill:#008080;fill-opacity:1;stroke:#000000;stroke-width:0.396875;stroke-linecap:butt;stroke-linejoin:miter;stroke-dasharray:none;stroke-opacity:1"
           d="m 165.22101,69.261404 c 1.69044,-3.020669 7.79885,-3.787185 10.5256,-0.410975 2.15337,2.666264 -4.59124,8.813676 1.39276,15.023524 -7.64026,7.858037 -14.21821,2.626231 -14.97786,1.369925 2.27521,-3.469157 1.9793,-5.963722 1.77811,-8.56185 -0.10121,-1.306958 0.14445,-2.478675 0.43051,-3.975287 0.19243,-1.006745 0.22637,-2.248897 0.85088,-3.445337 z"
           id="path28-5-5-4-6-2-8"
           sodipodi:nodetypes="csccssc" />
        <path
           style="fill:#008080;fill-opacity:1;stroke:#000000;stroke-width:0.396875;stroke-linecap:round;stroke-linejoin:round;stroke-dasharray:none;stroke-opacity:1"
           d="m 164.89311,69.894771 c 0.004,2.727908 -3.97023,4.697026 -0.0662,6.842471"
           id="path29-1-9-7-42-1-9"
           sodipodi:nodetypes="cc" />
        <path
           style="fill:none;stroke:#000000;stroke-width:0.396875;stroke-linecap:round;stroke-linejoin:round;stroke-dasharray:none;stroke-opacity:1"
           d="m 167.39548,75.434859 c 1.41416,2.799279 4.06622,0.527541 4.20339,0.36302"
           id="path30-7-2-0-4-9-1"
           sodipodi:nodetypes="cc" />
        <path
           style="fill:#000000;fill-opacity:0.154167;stroke:none;stroke-width:0.264583px;stroke-linecap:butt;stroke-linejoin:miter;stroke-opacity:1"
           d="m 167.55006,67.194387 c 0,0 3.3581,-0.193736 4.35908,0.322895 1.00097,0.51663 1.67905,1.097841 1.67905,1.097841 0,0 -1.48532,1.517605 -1.48532,2.906053 0,1.388446 0.38748,4.213776 -3.00292,4.278353 -3.39039,0.06458 -1.38844,-2.502432 -1.38844,-2.502432 0,0 -1.67906,-0.807236 -2.48629,0.419764 -0.80724,1.227 -1.90508,1.646761 -1.90508,1.646761 0,0 0.91079,1.679629 1.41266,1.364229 1.75978,-1.105913 3.26931,-0.460124 3.43076,-0.330965 0.16145,0.129156 0.41299,0.675717 1.51761,0.387473 3.09455,-0.807512 3.90695,10.057317 3.61642,10.042026 l 3.77786,-2.841474 c 0,0 -1.80821,-2.260264 -2.19568,-4.2945 -0.38747,-2.034235 -0.16145,-3.196656 0.64579,-6.296445 0.80724,-3.09979 1.06555,-4.197633 -0.29061,-5.230895 -1.35615,-1.033264 -3.84244,-2.292553 -7.68489,-0.968684 z"
           id="path33-5-2-9-9-1-0"
           sodipodi:nodetypes="cscsscscsssccsssc" />
      </g>
      <path
         style="fill:#67d058;fill-opacity:1;stroke:#000000;stroke-width:0.396875;stroke-linecap:butt;stroke-linejoin:miter;stroke-dasharray:none;stroke-opacity:1"
         d="m 63.227914,31.116188 c 0,0 -2.53638,2.63898 -3.96234,3.70687 -1.23436,1.06628 -0.11433,3.21001 0.92162,4.45655 1.97147,2.20776 3.08543,-2.77644 5.07011,-3.52826 2.05485,-1.19347 1.43634,-7.01059 -2.0294,-4.63518 z"
         id="path13-0-60-3-7-3-1"
         sodipodi:nodetypes="ccccc"
         inkscape:transform-center-x="-2.7052829"
         inkscape:transform-center-y="-2.8364987" />
      <path
         style="fill:#67d058;fill-opacity:1;stroke:#000000;stroke-width:0.396875;stroke-linecap:butt;stroke-linejoin:miter;stroke-dasharray:none;stroke-opacity:1;paint-order:fill markers stroke"
         d="m 55.800344,36.340138 c 3.76509,0.56317 2.20464,4.42364 3.10745,8.06997 0.60753,2.4107 -2.47953,3.18122 -3.40328,1.53377 -1.13582,-2.02567 -4.23861,-10.00382 0.29583,-9.60374 z"
         id="path15-1-2-1-8-2-1"
         sodipodi:nodetypes="ccsc"
         inkscape:transform-center-x="-0.43218404"
         inkscape:transform-center-y="3.5213858" />
      <g
         id="g30-5-1-6"
         transform="rotate(21.90981,786.82675,-593.95381)"
         inkscape:transform-center-x="-5.6485263"
         inkscape:transform-center-y="-3.9748031">
        <path
           id="path2-9-2-7-2-8-2"
           style="opacity:0.999;fill:#67d058;fill-opacity:1;stroke:#000000;stroke-width:0.410104;stroke-linecap:round;stroke-linejoin:round;stroke-dasharray:none;paint-order:fill markers stroke"
           d="m 346.30337,257.82491 c 1.22669,4.80601 6.5051,8.28939 9.27187,7.48873 2.97676,-0.86144 5.58912,-5.94056 4.36243,-10.74658 -1.22669,-4.80602 -5.31609,-6.87752 -9.13394,-5.94126 -3.81784,0.93627 -5.72705,4.39309 -4.50036,9.19911 z"
           sodipodi:nodetypes="sssss" />
        <rect
           style="opacity:0.999;fill:#000000;fill-opacity:1;stroke:none;stroke-width:0.105557;stroke-linecap:round;stroke-linejoin:bevel;stroke-dasharray:none;stroke-opacity:1;paint-order:markers stroke fill"
           id="rect8-0-1-5-75-1-1"
           width="1.1129664"
           height="2.4691243"
           x="-358.36096"
           y="254.41295"
           ry="0.68564111"
           transform="scale(-1,1)" />
        <rect
           style="opacity:0.999;fill:#000000;fill-opacity:1;stroke:none;stroke-width:0.105557;stroke-linecap:round;stroke-linejoin:bevel;stroke-dasharray:none;stroke-opacity:1;paint-order:markers stroke fill"
           id="rect8-4-6-3-1-1-7-5"
           width="1.1129664"
           height="2.4691243"
           x="-353.8819"
           y="254.4818"
           ry="0.68564111"
           transform="scale(-1,1)" />
        <path
           style="fill:#000000;fill-opacity:1;stroke:none;stroke-width:0.265;stroke-linecap:butt;stroke-linejoin:miter;stroke-dasharray:none;stroke-opacity:1"
           d="m 353.59559,253.02708 c 0.47806,0.56103 -1.10522,0.2641 -1.87314,1.92 -0.24909,-0.66224 1.18739,-2.59347 1.87314,-1.92 z"
           id="path8-2-8-3-7-8-8-8"
           sodipodi:nodetypes="ccc" />
        <path
           style="fill:#000000;fill-opacity:1;stroke:none;stroke-width:0.265;stroke-linecap:butt;stroke-linejoin:miter;stroke-dasharray:none;stroke-opacity:1"
           d="m 357.15166,252.75578 c -0.47806,0.56103 1.10522,0.2641 1.87314,1.92 0.24909,-0.66224 -1.18739,-2.59347 -1.87314,-1.92 z"
           id="path8-2-6-4-0-5-13-5-8"
           sodipodi:nodetypes="ccc" />
        <path
           style="fill:#67d058;fill-opacity:1;stroke:#000000;stroke-width:0.396875;stroke-linecap:round;stroke-linejoin:miter;stroke-dasharray:none;stroke-opacity:1"
           d="m 356.93735,257.15576 c 0,0 0.12294,0.92971 0.871,1.36481 0.44418,0.25835 -1.03245,1.10534 -1.03245,1.10534"
           id="path26-54-7-2-27-0-0"
           sodipodi:nodetypes="csc" />
        <path
           style="fill:#ffffff;stroke:#000000;stroke-width:0.264583;stroke-linecap:round;stroke-linejoin:round;stroke-dasharray:none;stroke-opacity:1"
           d="m 358.20471,260.29592 c -2.07929,0.94261 -4.15258,-0.19099 -4.03618,0.0242 1.83202,3.38733 3.77016,1.43757 4.03618,-0.0242 z"
           id="path27-1-7-3-0-2-6"
           sodipodi:nodetypes="csc" />
        <path
           style="fill:#d45500;fill-opacity:1;stroke:#000000;stroke-width:0.396875;stroke-linecap:butt;stroke-linejoin:miter;stroke-dasharray:none;stroke-opacity:1"
           d="m 349.67051,252.87718 -3.01383,-1.2786 c -3.32799,-5.29919 15.60819,-12.87131 14.93218,7.35194 -2.20759,-3.92726 -3.21809,-11.22686 -11.91835,-6.07334 z"
           id="path41-9-8-59-9-7"
           sodipodi:nodetypes="cccc" />
        <path
           style="fill:#000000;fill-opacity:0.133333;stroke:none;stroke-width:0.264583px;stroke-linecap:butt;stroke-linejoin:miter;stroke-opacity:1"
           d="m 360.07848,258.38341 c 0,0 -1.69518,-3.92317 -3.13205,-4.97258 -1.4369,-1.04941 -4.52054,-0.9364 -5.39235,-0.74266 -0.87182,0.19374 -1.06555,0.1453 -1.35617,0.38747 -0.29059,0.24217 -1.43687,3.81016 0.54893,7.362 1.9858,3.55184 4.34292,4.97258 4.34292,4.97258 0,0 -2.90605,0.1453 -5.74751,-2.55087 -2.84148,-2.69617 -1.71135,-2.22797 -1.71135,-2.22797 0,0 -1.84051,-4.1492 -1.74364,-5.3762 0.0969,-1.227 0.75879,-3.63256 0.75879,-3.63256 0,0 -0.45204,-0.64579 -0.35517,-1.29158 0.0969,-0.64579 0.41976,-1.87279 0.93639,-2.27641 0.51666,-0.40362 2.03425,-1.38845 2.03425,-1.38845 0,0 -0.74266,1.00098 -1.17856,1.42074 -0.43592,0.41976 1.45302,-0.35518 1.9535,-0.54892 0.50049,-0.19374 0.53279,0.12916 0.0646,0.69422 -0.46821,0.56507 -0.27446,0.7911 0.33903,0.83953 0.61352,0.0484 1.32387,-0.0161 0.67808,0.53278 -0.64577,0.54892 -1.53374,0.95253 -0.33904,0.74265 1.19473,-0.20988 1.45304,-0.17759 0.83952,0.33904 -0.61349,0.51663 -0.56504,0.6135 -0.56504,0.6135 5.07036,-2.11207 8.01587,-1.63255 10.46178,7.11983 l -1.14628,-1.82435 z"
           id="path42-1-3-0-2-2"
           sodipodi:nodetypes="csssscscscsscssssssscccc" />
        <path
           style="fill:#67d058;fill-opacity:1;stroke:#000000;stroke-width:0.397404;stroke-linecap:round;stroke-linejoin:miter;stroke-dasharray:none;stroke-opacity:1;paint-order:markers fill stroke"
           d="m 348.36238,260.57844 c -3.60365,0.18596 -1.68773,-2.10991 -3.9043,-4.81758 1.97723,-0.53429 3.82611,1.98318 3.87005,3.18508"
           id="path9-1-1-1-7-7-7"
           sodipodi:nodetypes="ccc" />
        <path
           style="fill:#000000;fill-opacity:0.1875;stroke:none;stroke-width:0.264583px;stroke-linecap:butt;stroke-linejoin:miter;stroke-opacity:1"
           d="m 344.53918,255.75989 c 0,0 0.19372,-0.12109 1.1947,0.12108 1.00097,0.24217 1.81629,1.25122 2.03426,1.52568 0.21796,0.27446 0.53276,1.52568 0.53276,1.52568 l -0.0565,0.0726 c 0,0 -0.9929,-1.41267 -1.86474,-2.04231 -0.8718,-0.62965 -1.48532,-0.50049 -1.48532,-0.50049 z"
           id="path43-00-0-3-4-9" />
      </g>
      <path
         style="fill:#67d058;fill-opacity:1;stroke:#000000;stroke-width:0.396875;stroke-linecap:round;stroke-linejoin:miter;stroke-dasharray:none;stroke-opacity:1"
         d="m 58.114074,43.553928 c 2.23526,2.4618 4.13713,5.22005 6.5606,7.47929 0.43076,0.50709 -0.39818,2.37256 -1.42334,1.8572 -5.11419,-2.2844 -7.08331,-5.49759 -7.35961,-6.61107"
         id="path44-00-6-26-6-2"
         sodipodi:nodetypes="cccc"
         inkscape:transform-center-x="-2.9610059"
         inkscape:transform-center-y="2.5307701" />
      <g
         id="g21-1-0-4-90-3-5"
         transform="matrix(-0.56937336,0.82207907,0.82207907,0.56937336,81.981994,-129.82577)"
         inkscape:transform-center-x="-9.0147415"
         inkscape:transform-center-y="7.1493734">
        <g
           id="g44-3-2-20-4-2"
           transform="translate(-6.4738393,-1.8655071)">
          <path
             style="fill:#67d058;fill-opacity:1;stroke:#000000;stroke-width:0.396875;stroke-linecap:butt;stroke-linejoin:miter;stroke-dasharray:none;stroke-opacity:1"
             d="m 164.97264,90.099494 c 0,0 -0.24991,0.642304 -0.90106,1.757576 -0.6512,1.115272 -1.12876,1.164839 -0.84657,2.180977 0.2822,1.016137 0.62951,1.462247 0.62951,1.462247 0,0 1.80168,-0.594814 2.40947,-0.693947 0.6078,-0.09914 0.87672,0.53506 1.0938,-0.728914 0.21706,-1.263976 -0.32561,-3.568871 -0.41244,-3.717575 -0.0869,-0.148703 -1.97271,-0.260362 -1.97271,-0.260362 z"
             id="path18-3-0-6-53-5-3"
             sodipodi:nodetypes="csscssscc" />
          <path
             style="fill:#67d058;fill-opacity:1;stroke:#000000;stroke-width:0.397;stroke-linecap:round;stroke-linejoin:miter;stroke-dasharray:none;stroke-opacity:1"
             d="m 163.89793,93.14583 c 0,0 -0.47755,3.197112 0.3039,3.296249 0.78145,0.09913 1.19388,-2.106625 1.19388,-2.106625"
             id="path19-0-3-2-67-4-6" />
          <path
             style="fill:#67d058;fill-opacity:1;stroke:#000000;stroke-width:0.397;stroke-linecap:round;stroke-linejoin:miter;stroke-dasharray:none;stroke-opacity:1"
             d="m 165.41015,94.332107 c 0,0 -0.34004,1.614295 0.39799,1.63908 0.73804,0.02478 0.93341,-1.660517 0.93341,-1.660517"
             id="path20-6-6-4-3-3-7"
             sodipodi:nodetypes="csc" />
          <path
             style="fill:#000000;fill-opacity:1;stroke:none;stroke-width:0.264583px;stroke-linecap:butt;stroke-linejoin:miter;stroke-opacity:1"
             d="m 163.56157,92.860973 c 0.10924,0.557486 1.0421,2.25399 1.93325,1.681231 0.36305,-0.233336 1.82256,0.79731 2.18685,0.04391 0.95276,-2.343882 0.17404,-2.326371 -0.17523,-4.430051 -0.0931,-0.349363 -2.51691,-1.087812 -2.83234,-0.38686 z"
             id="path21-2-1-6-3-0-4"
             sodipodi:nodetypes="cscccc" />
        </g>
      </g>
      <g
         id="g46-0-3-75-0-5"
         inkscape:transform-center-x="-2.5998833"
         inkscape:transform-center-y="1.7117788"
         transform="matrix(-1,0,0,1,350.56429,-45.184572)">
        <path
           style="fill:#1a1a1a;stroke:#000000;stroke-width:0.264583px;stroke-linecap:butt;stroke-linejoin:miter;stroke-opacity:1"
           d="m 302.5122,113.34753 c 0,0 -3.60747,0.6393 -4.47509,1.68957 -0.86762,1.05028 -0.18265,2.05489 -0.18265,2.05489 0,0 7.62592,0.137 7.85424,0 1.71301,-0.54029 0.53763,-3.71108 -0.50231,-3.83579 0,0 -1.73524,-0.54797 -2.69419,0.0913 z"
           id="path36-75-2-9-9-9-4"
           sodipodi:nodetypes="cscscsc" />
        <path
           style="fill:none;stroke:#000000;stroke-width:0.264583px;stroke-linecap:round;stroke-linejoin:round;stroke-opacity:1"
           d="m 301.44643,113.64279 c 1.08725,0.0947 1.87754,1.15853 1.99387,1.77592"
           id="path45-9-7-6-3-9"
           sodipodi:nodetypes="cc" />
        <path
           style="fill:none;stroke:#000000;stroke-width:0.264583px;stroke-linecap:round;stroke-linejoin:round;stroke-opacity:1"
           d="m 300.33029,113.89239 c 1.08725,0.0947 1.69995,0.97287 1.81628,1.59026"
           id="path45-8-5-8-5-6-0"
           sodipodi:nodetypes="cc" />
        <path
           style="fill:none;stroke:#000000;stroke-width:0.264583px;stroke-linecap:round;stroke-linejoin:round;stroke-opacity:1"
           d="m 299.3428,114.25204 c 0.69171,0.0382 1.63537,0.62576 1.5176,1.36423"
           id="path45-8-0-5-2-2-5-7"
           sodipodi:nodetypes="cc" />
      </g>
    </g>
  </g>
</svg>
